<?xml version="1.0" encoding="utf-8"?>
<!-- Generator: Adobe Illustrator 24.0.2, SVG Export Plug-In . SVG Version: 6.00 Build 0)  -->
<svg version="1.1" id="Layer_1" xmlns="http://www.w3.org/2000/svg" xmlns:xlink="http://www.w3.org/1999/xlink" x="0px" y="0px"
	 viewBox="0 0 900 900" style="enable-background:new 0 0 900 900;" xml:space="preserve">
<style type="text/css">
	.st0{fill:#FF2D20;}
	.st1{fill:#41B883;}
	.st2{fill:#38BDF8;}
	.st3{fill:#FFFFFF;}
</style>
<rect x="-7.2" y="0" class="st0" width="308.4" height="900"/>
<rect x="301.2" y="0" class="st1" width="300" height="900"/>
<rect x="600" y="0" class="st2" width="300" height="900"/>
<g>
	<path class="st3" d="M38.9,858.2v-41h176.4v-59.8h39.1v100.8H38.9z"/>
	<path class="st3" d="M95,613v-40h159.4v40h-16.8c7.4,7.8,12.8,15.6,16,23.5c3.3,7.9,4.9,16.4,4.9,25.5c0,20.6-8,38.4-24,53.4
		s-35.8,22.5-59.5,22.5c-24.6,0-44.8-7.3-60.5-21.8c-15.7-14.5-23.6-32.2-23.6-53c0-9.6,1.8-18.5,5.4-26.9c3.6-8.4,9-16.1,16.3-23.3
		H95z M127.8,655c0,12.4,4.4,22.6,13.1,30.8c8.7,8.2,19.9,12.3,33.6,12.3c13.8,0,25.1-4.2,34-12.5c8.9-8.3,13.3-18.6,13.3-30.7
		c0-12.6-4.4-23-13.1-31.2c-8.7-8.3-20.2-12.4-34.4-12.4c-13.9,0-25.1,4.1-33.7,12.4C132.1,631.9,127.8,642.3,127.8,655z"/>
	<path class="st3" d="M95,541.9v-34.3H115c-7.9-3.7-13.9-8.6-18-14.8s-6.2-12.9-6.2-20.2c0-5.2,1.4-10.6,4.1-16.3l34.4,12.5
		c-2.3,4.7-3.5,8.5-3.5,11.6c0,6.2,3.8,11.4,11.4,15.6s22.6,6.4,44.8,6.4l7.8-0.1h64.5v39.7H95z"/>
	<path class="st3" d="M95,319v-40h159.4v40h-16.8c7.4,7.8,12.8,15.6,16,23.5c3.3,7.9,4.9,16.4,4.9,25.5c0,20.6-8,38.4-24,53.4
		s-35.8,22.5-59.5,22.5c-24.6,0-44.8-7.3-60.5-21.8c-15.7-14.5-23.6-32.2-23.6-53c0-9.6,1.8-18.5,5.4-26.9c3.6-8.4,9-16.1,16.3-23.3
		H95z M127.8,361c0,12.4,4.4,22.6,13.1,30.8c8.7,8.2,19.9,12.3,33.6,12.3c13.8,0,25.1-4.2,34-12.5c8.9-8.3,13.3-18.6,13.3-30.7
		c0-12.6-4.4-23-13.1-31.2c-8.7-8.3-20.2-12.4-34.4-12.4c-13.9,0-25.1,4.1-33.7,12.4C132.1,337.9,127.8,348.4,127.8,361z"/>
</g>
<g>
	<path class="st3" d="M338.6,856.7v-42.2l153.1-54.2l-153.1-55v-42.1L554,740.8v39.6L338.6,856.7z"/>
	<path class="st3" d="M394.7,634.9v-40.4h76.8c14.9,0,25.3-1,31.1-3.1c5.8-2.1,10.3-5.4,13.5-9.9c3.2-4.5,4.8-10.2,4.8-16.8
		c0-6.7-1.6-12.3-4.8-17c-3.2-4.7-7.8-8.1-14-10.4c-4.6-1.7-14.4-2.5-29.4-2.5h-78.1v-40h67.5c27.8,0,46.9,2.2,57.1,6.6
		c12.5,5.4,22.1,13.3,28.8,23.7c6.7,10.5,10,23.7,10,39.8c0,17.5-3.9,31.6-11.7,42.4c-7.8,10.8-18.7,18.4-32.7,22.8
		c-9.7,3.1-27.2,4.7-52.7,4.7H394.7z"/>
	<path class="st3" d="M485.9,295v128.5c11.3-1.9,20.3-6.8,27-14.9c6.7-8.1,10-18.3,10-30.8c0-14.9-5.2-27.8-15.7-38.5l15.8-33.7
		c11.9,8.4,20.7,18.5,26.4,30.2s8.6,25.6,8.6,41.7c0,25-7.9,45.4-23.7,61.1c-15.8,15.7-35.5,23.6-59.3,23.6
		c-24.3,0-44.5-7.8-60.6-23.5c-16.1-15.7-24.1-35.3-24.1-59c0-25.1,8-45.5,24.1-61.2c16.1-15.7,37.3-23.6,63.6-23.6L485.9,295z
		 M454.4,335c-8.9,2.6-16.1,7.9-21.7,15.6s-8.3,16.8-8.3,27.1c0,11.2,3.1,20.9,9.4,29.3c3.9,5.3,10.8,10.2,20.7,14.7V335z"/>
</g>
<g>
	<path class="st3" d="M639.4,856.1V737h40.4v39.3h175v41.6h-175v38.2H639.4z"/>
	<path class="st3" d="M695.5,595.6v-40h159.4v40H838c7.4,7.8,12.8,15.6,16,23.5c3.3,7.9,4.9,16.4,4.9,25.5c0,20.6-8,38.4-24,53.4
		s-35.8,22.5-59.5,22.5c-24.6,0-44.8-7.3-60.5-21.8c-15.7-14.5-23.6-32.2-23.6-53c0-9.6,1.8-18.5,5.4-26.9c3.6-8.4,9-16.1,16.3-23.3
		H695.5z M728.3,637.6c0,12.4,4.4,22.6,13.1,30.8c8.7,8.2,19.9,12.3,33.6,12.3c13.8,0,25.1-4.2,34-12.5c8.9-8.3,13.3-18.6,13.3-30.7
		c0-12.6-4.4-23-13.1-31.2c-8.7-8.3-20.2-12.4-34.4-12.4c-13.9,0-25.1,4.1-33.7,12.4C732.6,614.5,728.3,625,728.3,637.6z"/>
	<path class="st3" d="M629.8,499.6c0-7,2.5-13,7.6-18c5.1-5,11.2-7.5,18.5-7.5c7.1,0,13.2,2.5,18.2,7.5c5,5,7.5,10.9,7.5,17.8
		c0,7.1-2.6,13.2-7.7,18.2c-5.1,5-11.4,7.5-18.7,7.5c-7,0-13-2.5-18-7.4C632.3,512.6,629.8,506.6,629.8,499.6z M695.5,519.6v-40
		h159.4v40H695.5z"/>
	<path class="st3" d="M633.9,447.7v-40h220.9v40H633.9z"/>
</g>
<g>
</g>
<g>
</g>
<g>
</g>
<g>
</g>
<g>
</g>
<g>
</g>
</svg>
