<?xml version="1.0" encoding="utf-8"?>
<!-- Generator: Adobe Illustrator 24.0.2, SVG Export Plug-In . SVG Version: 6.00 Build 0)  -->
<svg version="1.1" id="Layer_1" xmlns="http://www.w3.org/2000/svg" xmlns:xlink="http://www.w3.org/1999/xlink" x="0px" y="0px"
	 viewBox="0 0 1200 1200" style="enable-background:new 0 0 1200 1200;" xml:space="preserve">
<style type="text/css">
	.st0{clip-path:url(#SVGID_2_);fill:#FF2D20;}
	.st1{clip-path:url(#SVGID_2_);fill:#41B883;}
	.st2{clip-path:url(#SVGID_2_);fill:#38BDF8;}
</style>
<g>
	<defs>
		<path id="SVGID_1_" d="M1070.4,500.1c24.9-74.8,16.4-156.7-23.4-224.7c-59.9-104.2-180.4-157.7-298-132.8
			c-52.5-58.8-127.6-92.2-206.4-91.9c-120.2,0-226.9,77.4-264.1,191.6c-77.2,15.9-143.9,64.3-183,132.8
			c-60.3,104.2-46.5,235.1,34.2,324.4c-24.9,74.8-16.4,156.6,23.4,224.3c59.9,104.5,180.4,158.1,298.3,133.2
			c52.2,59,127.3,92.6,206.1,92.3c120.2,0,226.9-77.4,264.1-191.6c77.4-16,144-64.4,182.6-132.8c60.6-104.2,46.9-235.1-33.8-324.4
			V500.1z M806,208.4L806,208.4c73.8-0.1,142,39.2,178.8,103.2c23.8,41.7,32.7,90.4,24.5,137.6c-1.5-1.1-4.5-2.6-6.3-3.7L784.3,319
			c-11.2-6.3-24.9-6.3-36.1,0L492,467V358.4L703.6,236C734.7,218,770.1,208.4,806,208.4z M599.8,474.8l107.9,62.5v124.6l-107.9,62.5
			L492,661.9V537.3L599.8,474.8z M336.9,328.3c0-113.7,92-205.9,205.7-206.1v0l-0.4,0.4c48.4,0,94.9,16.7,132.1,47.6
			c-1.5,0.7-4.5,2.6-6.7,3.7L448.8,300c-11.2,6.3-17.9,18.2-17.9,31.3v296.1L336.9,573V328.3z M157.9,411.2
			c24.1-41.7,62-73.7,107.1-90.4v0v260c0,13,6.7,24.6,17.9,31.3l255.9,147.7l-94.5,54.7l-211.3-122
			C134.8,635.5,101.1,509.6,157.9,411.2z M215.2,888.5h0.4c-24.2-41.3-32.7-90.4-24.6-137.6c1.5,1.1,4.5,2.6,6.3,3.7L416.1,881
			c11.2,6.3,24.9,6.3,36.1,0l255.9-148v108.6l-211.7,122C397.9,1020.2,272.1,986.7,215.2,888.5z M863.6,871.7
			c0,113.8-92.3,206.1-205.7,206.1v-0.4c-48,0-94.9-16.7-131.7-47.6c1.5-0.7,4.8-2.6,6.7-3.7L751.6,900
			c11.2-6.3,18.2-18.2,17.8-31.3l0-295.7l94.1,54.3V871.7z M1042.1,788.4l0.4,0.4c-24.2,41.7-62.1,73.7-107.1,90v-260
			c0-13-6.7-24.9-17.9-31.2L661.2,439.5l94.1-54.3l211.7,122C1065.6,564.1,1099,689.8,1042.1,788.4z"/>
	</defs>
	<clipPath id="SVGID_2_">
		<use xlink:href="#SVGID_1_"  style="overflow:visible;"/>
	</clipPath>
	<rect class="st0" width="407.9" height="1200"/>
	<rect x="407.9" class="st1" width="396.8" height="1200"/>
	<rect x="803.2" class="st2" width="396.8" height="1200"/>
</g>
<g>
</g>
<g>
</g>
<g>
</g>
<g>
</g>
<g>
</g>
<g>
</g>
</svg>
