<?xml version="1.0" encoding="utf-8"?>
<!-- Generator: Adobe Illustrator 24.0.2, SVG Export Plug-In . SVG Version: 6.00 Build 0)  -->
<svg version="1.1" id="OBJECTS" xmlns="http://www.w3.org/2000/svg" xmlns:xlink="http://www.w3.org/1999/xlink" x="0px" y="0px"
	 viewBox="0 0 500 500" style="enable-background:new 0 0 500 500;" xml:space="preserve">
<style type="text/css">
	.st0{fill:#38BDF8;}
	.st1{fill:#41B883;}
	.st2{fill:#FF2D20;}
</style>
<g>
	<path class="st0" d="M338.9,392.1c-13.6,0-25.1,8.9-29.2,21.1H287l-84.4-84.4c-1.8-1.8-4.2-2.8-6.8-2.8h-25.1
		c-5.3,0-9.6,4.3-9.6,9.6c0,5.3,4.3,9.6,9.6,9.6h21.1l84.4,84.4c1.8,1.8,4.2,2.8,6.8,2.8h26.7c4,12.2,15.6,21.1,29.2,21.1
		c16.9,0,30.7-13.8,30.7-30.7C369.6,405.8,355.8,392.1,338.9,392.1z M338.9,434.3c-6.4,0-11.5-5.2-11.5-11.5
		c0-6.4,5.2-11.5,11.5-11.5c6.4,0,11.5,5.2,11.5,11.5C350.4,429.1,345.2,434.3,338.9,434.3z"/>
	<path class="st0" d="M214.6,391c-13.6,0-25.1,8.9-29.2,21.1H140c-5.3,0-9.6,4.3-9.6,9.6c0,5.3,4.3,9.6,9.6,9.6h45.4
		c4,12.2,15.6,21.1,29.2,21.1c16.9,0,30.7-13.8,30.7-30.7C245.3,404.8,231.5,391,214.6,391z M214.6,433.2c-5.6,0-10.3-4-11.3-9.3
		c0.2-0.7,0.3-1.5,0.3-2.2s-0.1-1.5-0.3-2.2c1-5.3,5.7-9.3,11.3-9.3c6.4,0,11.5,5.2,11.5,11.5C226.1,428.1,220.9,433.2,214.6,433.2z
		"/>
	<path class="st0" d="M388.6,304.9c-13.6,0-25.1,8.9-29.2,21.1h-95.1c-5.3,0-9.6,4.3-9.6,9.6c0,5.3,4.3,9.6,9.6,9.6h95.1
		c4,12.2,15.6,21.1,29.2,21.1c16.9,0,30.7-13.8,30.7-30.7S405.5,304.9,388.6,304.9z M388.6,347.1c-6.4,0-11.5-5.2-11.5-11.5
		c0-6.4,5.2-11.5,11.5-11.5c6.4,0,11.5,5.2,11.5,11.5C400.1,341.9,395,347.1,388.6,347.1z"/>
	<path class="st1" d="M438.3,218.2c-13.6,0-25.1,8.9-29.2,21.1H202.4c-2.5,0-5,1-6.8,2.8L111.8,326H90.3c-5.3,0-9.6,4.3-9.6,9.6
		c0,5.3,4.3,9.6,9.6,9.6h25.4c2.5,0,5-1,6.8-2.8l83.9-83.9h202.8c4,12.2,15.6,21.1,29.2,21.1c16.9,0,30.7-13.8,30.7-30.7
		C469,232,455.3,218.2,438.3,218.2z M438.3,260.4c-6.4,0-11.5-5.2-11.5-11.5c0-6.4,5.2-11.5,11.5-11.5c6.4,0,11.5,5.2,11.5,11.5
		C449.9,255.3,444.7,260.4,438.3,260.4z"/>
	<path class="st2" d="M359.4,153.8H248c-5.3,0-9.6,4.3-9.6,9.6c0,5.3,4.3,9.6,9.6,9.6h111.4c4,12.2,15.6,21.1,29.2,21.1
		c16.9,0,30.7-13.8,30.7-30.7s-13.8-30.7-30.7-30.7C375,132.7,363.5,141.5,359.4,153.8z M388.6,151.8c6.4,0,11.5,5.2,11.5,11.5
		c0,6.4-5.2,11.5-11.5,11.5c-6.4,0-11.5-5.2-11.5-11.5C377.1,157,382.2,151.8,388.6,151.8z"/>
	<path class="st1" d="M122.2,280.2c16.9,0,30.7-13.8,30.7-30.7c0-16.9-13.8-30.7-30.7-30.7c-13.6,0-25.1,8.9-29.2,21.1H40.6
		c-5.3,0-9.6,4.3-9.6,9.6s4.3,9.6,9.6,9.6H93C97.1,271.3,108.6,280.2,122.2,280.2z M122.2,237.9c6.4,0,11.5,5.2,11.5,11.5
		c0,6.4-5.2,11.5-11.5,11.5c-6.4,0-11.5-5.2-11.5-11.5C110.7,243.1,115.8,237.9,122.2,237.9z"/>
	<path class="st2" d="M90.3,172.9h102.9c2.5,0,5-1,6.8-2.8l82.8-82.8h27.1c4.2,12,15.6,20.6,29,20.6c16.9,0,30.7-13.8,30.7-30.7
		s-13.8-30.7-30.7-30.7c-13.8,0-25.5,9.1-29.3,21.6h-30.7c-2.5,0-5,1-6.8,2.8l-82.8,82.8h-99c-5.3,0-9.6,4.3-9.6,9.6
		C80.7,168.6,85,172.9,90.3,172.9z M338.9,65.7c6.4,0,11.5,5.2,11.5,11.5c0,6.4-5.2,11.5-11.5,11.5c-6.4,0-11.5-5.2-11.5-11.5
		C327.4,70.9,332.5,65.7,338.9,65.7z"/>
	<path class="st2" d="M140,86.8h31.1c4,12.2,15.6,21.1,29.2,21.1c16.9,0,30.7-13.8,30.7-30.7s-13.8-30.7-30.7-30.7
		c-13.6,0-25.1,8.9-29.2,21.1H140c-5.3,0-9.6,4.3-9.6,9.6C130.4,82.5,134.7,86.8,140,86.8z M200.3,65.7c6.4,0,11.5,5.2,11.5,11.5
		c0,6.4-5.2,11.5-11.5,11.5c-6.4,0-11.5-5.2-11.5-11.5C188.8,70.9,193.9,65.7,200.3,65.7z"/>
	<path class="st1" d="M170.7,199.7c-3.5,0-6.4,2.9-6.4,6.4c0,3.5,2.9,6.4,6.4,6.4h179.4c3.5,0,6.4-2.9,6.4-6.4
		c0-3.5-2.9-6.4-6.4-6.4H170.7z"/>
	<path class="st0" d="M350.2,298.9c3.5,0,6.4-2.9,6.4-6.4s-2.9-6.4-6.4-6.4H224.8c-3.5,0-6.4,2.9-6.4,6.4s2.9,6.4,6.4,6.4H350.2z"/>
	<path class="st0" d="M315.9,385c3.5,0,6.4-2.9,6.4-6.4s-2.9-6.4-6.4-6.4h-40.5c-3.5,0-6.4,2.9-6.4,6.4s2.9,6.4,6.4,6.4H315.9z"/>
	<path class="st2" d="M315.9,127c3.5,0,6.4-2.9,6.4-6.4s-2.9-6.4-6.4-6.4h-40.5c-3.5,0-6.4,2.9-6.4,6.4s2.9,6.4,6.4,6.4H315.9z"/>
	<path class="st2" d="M126.5,127H167c3.5,0,6.4-2.9,6.4-6.4s-2.9-6.4-6.4-6.4h-40.5c-3.5,0-6.4,2.9-6.4,6.4S123,127,126.5,127z"/>
	<path class="st0" d="M138.7,385h40.5c3.5,0,6.4-2.9,6.4-6.4s-2.9-6.4-6.4-6.4h-40.5c-3.5,0-6.4,2.9-6.4,6.4S135.2,385,138.7,385z"
		/>
</g>
<g>
</g>
<g>
</g>
<g>
</g>
<g>
</g>
<g>
</g>
<g>
</g>
</svg>
